<svg xmlns="http://www.w3.org/2000/svg" viewBox="0 0 1600 900" role="img" aria-label="A gold bar chart ranking five eras, the tallest crowned with a star">
  <rect width="1600" height="900" fill="#0F1626"/>
  <g fill="#C3A364">
    <rect x="300" y="480" width="140" height="270" rx="14" opacity="0.55"/>
    <rect x="520" y="380" width="140" height="370" rx="14" opacity="0.7"/>
    <rect x="740" y="250" width="140" height="500" rx="14"/>
    <rect x="960" y="420" width="140" height="330" rx="14" opacity="0.7"/>
    <rect x="1180" y="540" width="140" height="210" rx="14" opacity="0.55"/>
  </g>
  <path fill="#F3E5AB" d="M810,120 L826,164 L873,166 L836,195 L849,240 L810,214 L771,240 L784,195 L747,166 L794,164 Z"/>
  <path d="M240,750 L1380,750" stroke="#26304A" stroke-width="4"/>
  <circle cx="220" cy="180" r="3" fill="#F3E5AB"/><circle cx="1400" cy="240" r="3.5" fill="#F3E5AB"/><circle cx="1300" cy="130" r="2.5" fill="#F3E5AB"/>
</svg>
