<svg xmlns="http://www.w3.org/2000/svg" viewBox="0 0 1600 1200" role="img" aria-label="A gold record spinning in a midnight starfield">
  <defs>
    <radialGradient id="sky" cx="50%" cy="42%" r="75%">
      <stop offset="0%" stop-color="#1B2A4A"/>
      <stop offset="55%" stop-color="#121B2D"/>
      <stop offset="100%" stop-color="#0A0E1A"/>
    </radialGradient>
    <radialGradient id="glow" cx="50%" cy="50%" r="50%">
      <stop offset="0%" stop-color="#F3E5AB" stop-opacity="0.35"/>
      <stop offset="100%" stop-color="#F3E5AB" stop-opacity="0"/>
    </radialGradient>
  </defs>
  <rect width="1600" height="1200" fill="url(#sky)"/>
  <g fill="#F3E5AB">
    <circle cx="120" cy="140" r="4"/><circle cx="320" cy="90" r="2.5"/><circle cx="540" cy="200" r="3"/>
    <circle cx="760" cy="80" r="2"/><circle cx="990" cy="160" r="3.5"/><circle cx="1240" cy="100" r="2.5"/>
    <circle cx="1450" cy="210" r="4"/><circle cx="180" cy="420" r="2"/><circle cx="1380" cy="430" r="3"/>
    <circle cx="90" cy="760" r="3"/><circle cx="1500" cy="720" r="2.5"/><circle cx="240" cy="1020" r="3.5"/>
    <circle cx="640" cy="1100" r="2"/><circle cx="1060" cy="1080" r="3"/><circle cx="1360" cy="980" r="2.5"/>
    <circle cx="440" cy="640" r="2"/><circle cx="1180" cy="620" r="2"/>
  </g>
  <g fill="#C3A364" opacity="0.9">
    <path d="M240,260 l6,16 17,1 -13,11 5,17 -15,-10 -15,10 5,-17 -13,-11 17,-1 Z"/>
    <path d="M1330,320 l6,16 17,1 -13,11 5,17 -15,-10 -15,10 5,-17 -13,-11 17,-1 Z"/>
    <path d="M470,940 l6,16 17,1 -13,11 5,17 -15,-10 -15,10 5,-17 -13,-11 17,-1 Z"/>
    <path d="M1210,880 l6,16 17,1 -13,11 5,17 -15,-10 -15,10 5,-17 -13,-11 17,-1 Z"/>
  </g>
  <path d="M1130,180 L1470,60" stroke="#F3E5AB" stroke-width="3" stroke-linecap="round" opacity="0.5"/>
  <circle cx="800" cy="560" r="330" fill="url(#glow)"/>
  <g>
    <circle cx="800" cy="560" r="250" fill="#0F1626" stroke="#C3A364" stroke-width="10"/>
    <circle cx="800" cy="560" r="205" fill="none" stroke="#C3A364" stroke-width="3" opacity="0.5"/>
    <circle cx="800" cy="560" r="170" fill="none" stroke="#C3A364" stroke-width="3" opacity="0.35"/>
    <circle cx="800" cy="560" r="135" fill="none" stroke="#C3A364" stroke-width="3" opacity="0.25"/>
    <path fill="#F3E5AB" d="M800,462 L823.5,528 L893.5,529.9 L838.1,572.7 L857.8,640 L800,600.3 L742.2,640 L761.9,572.7 L706.5,529.9 L776.5,528 Z"/>
  </g>
  <text x="800" y="1105" text-anchor="middle" font-family="Georgia, 'Times New Roman', serif" font-size="44" fill="#C3A364" letter-spacing="14" opacity="0.85">TRULY · MADLY · DEEPLY</text>
</svg>
