<svg xmlns="http://www.w3.org/2000/svg" viewBox="0 0 1600 900" role="img" aria-label="A gold microphone with sound waves on a midnight background">
  <rect width="1600" height="900" fill="#121B2D"/>
  <g stroke="#C3A364" fill="none" stroke-width="6" opacity="0.6">
    <path d="M1050,450 q60,-120 0,-240" transform="translate(0,240)"/>
    <path d="M1130,510 q90,-180 0,-360" transform="translate(0,180)"/>
    <path d="M550,450 q-60,-120 0,-240" transform="translate(0,240)"/>
    <path d="M470,510 q-90,-180 0,-360" transform="translate(0,180)"/>
  </g>
  <rect x="770" y="470" width="60" height="180" rx="20" fill="#C3A364"/>
  <rect x="720" y="230" width="160" height="280" rx="80" fill="#F3E5AB"/>
  <g stroke="#121B2D" stroke-width="6"><path d="M740,300 h120"/><path d="M740,350 h120"/><path d="M740,400 h120"/></g>
  <path d="M680,480 q120,110 240,0" stroke="#C3A364" stroke-width="10" fill="none"/>
  <circle cx="300" cy="180" r="3" fill="#F3E5AB"/><circle cx="1320" cy="160" r="3.5" fill="#F3E5AB"/><circle cx="1240" cy="740" r="2.5" fill="#F3E5AB"/>
</svg>
